<?xml version="1.0" standalone="no"?><!DOCTYPE svg PUBLIC "-//W3C//DTD SVG 1.1//EN" "http://www.w3.org/Graphics/SVG/1.1/DTD/svg11.dtd"><svg t="1709321943590" class="icon" viewBox="0 0 1024 1024" version="1.1" xmlns="http://www.w3.org/2000/svg" p-id="13937" xmlns:xlink="http://www.w3.org/1999/xlink" width="200" height="200"><path d="M353.921825 875.55153l-0.23445-0.479244 56.888697-44.545574-105.581974-192.083825-0.296511-0.541304C176.89799 689.235875 90.634038 803.5132 90.634038 1023.996552h336.063946l-73.010609-148.255393 0.23445-0.189629zM614.2514 830.064707l56.63356 45.011027-0.23445 0.479244 0.23445 0.189629-73.003714 148.255393h335.484716c0-220.4868-86.23637-334.7262-213.994593-386.070835l-0.296511 0.541305-104.823458 191.594237zM512 710.270901c-14.891048 0-29.547645-1.010205-43.92497-2.930629l23.503652 42.501028-18.687076 274.155252h78.216788l-18.687076-274.155252 23.503652-42.501028c-14.377325 1.920425-29.033922 2.93063-43.92497 2.930629zM786.734482 381.192198c-19.931731 2.765135-51.77561 6.640462-89.701408 10.146875v41.349463c0 40.466827-33.657422 73.27609-74.127697 73.27609s-74.127697-32.809263-74.127696-73.27609v-33.154043c-10.3434 0.255137-24.72762 0.410288-37.925798 0.410288-13.198178 0-27.582399-0.155151-37.925799-0.410288v33.154043c0 40.466827-33.657422 73.27609-74.127696 73.27609s-74.127697-32.809263-74.127697-73.27609v-41.349463a1967.42147 1967.42147 0 0 1-88.4602-10.126188c-0.03103-0.003448 0.224107-0.024135 0.193077-0.024135 0.572335 151.368756 124.09666 273.893219 275.596432 273.893219h0.089643c151.461847 0 274.072505-122.552045 274.644839-273.889771zM242.361366 326.196343C285.658836 332.212753 390.623654 344.779984 512 344.779984s226.341164-12.56723 269.638634-18.583641c-0.027582-0.131016-0.048269-0.268928-0.072404-0.403393 20.190316-2.972003 38.398147-6.274996 54.275265-9.853812C880.535325 305.864667 906.773082 293.604291 906.773082 280.381979c0-15.535786-36.198451-29.744169-96.038465-40.639217-9.412494-1.713557-19.428352-3.344366-29.961381-4.88898a262.422389 262.422389 0 0 0-7.436904-56.175003C748.032929 75.772297 662.020667 0 558.321191 0h-92.638934c-105.768156 0-195.638506 78.827048-219.690358 184.874475a255.488864 255.488864 0 0 0-6.219831 50.489581c-9.278029 1.389463-18.125084 2.85133-26.506685 4.382154C153.425369 250.637809 117.226918 264.846192 117.226918 280.381979c0 13.222312 26.237757 25.482689 70.931587 35.557159 15.877118 3.578816 34.084949 6.881808 54.275265 9.853812-0.024135 0.134464-0.044821 0.272376-0.072404 0.403393z" p-id="13938" fill="#ed7299"></path></svg>